<?xml version="1.0" encoding="UTF-8"?><svg id="Ebene_1" xmlns="http://www.w3.org/2000/svg" viewBox="0 0 100 79.18"><defs><style>.cls-1{fill:#ffa932;}.cls-2{fill:#fff85c;}</style></defs><path class="cls-1" d="m75,66.68c-2.3,0-4.17-1.87-4.17-4.17s1.87-4.17,4.17-4.17c9.19,0,16.67-7.48,16.67-16.67s-6.85-16.05-15.58-16.61l-2.46-.15-1.05-2.22c-4.12-8.72-12.99-14.36-22.59-14.36s-18.47,5.64-22.59,14.36l-1.05,2.22-2.45.16c-8.74.57-15.58,7.86-15.58,16.61,0,9.19,7.48,16.67,16.67,16.67,2.3,0,4.17,1.87,4.17,4.17s-1.87,4.17-4.17,4.17c-13.79,0-25-11.21-25-25,0-12.32,9.03-22.71,20.97-24.65C26.83,6.61,37.97,0,50,0s23.17,6.61,29.04,17.01c11.93,1.94,20.97,12.34,20.97,24.66,0,13.78-11.21,25-25,25Z"/><path class="cls-2" d="m50,79.18c-1.06,0-2.13-.41-2.95-1.22l-12.5-12.5c-1.63-1.63-1.63-4.27,0-5.89,1.62-1.63,4.27-1.63,5.89,0l9.55,9.55,9.55-9.55c1.62-1.63,4.27-1.63,5.89,0,1.63,1.63,1.63,4.27,0,5.89l-12.5,12.5c-.8.81-1.87,1.22-2.93,1.22h0Z"/><path class="cls-2" d="m50,79.18c-2.3,0-4.17-1.87-4.17-4.17v-29.17c0-2.3,1.87-4.17,4.17-4.17s4.17,1.87,4.17,4.17v29.17c0,2.3-1.87,4.17-4.17,4.17Z"/></svg>